#!OML:ASF E:\Steps\Project 1\Capture day 1\Session 2\Subject.ASF
:FULLY-SPECIFIED
:DEGREES
204
root 7.21293 16.207 25.995 -154.598 8.357 176.339
lowerback -25.9947 -1.82296 -9.80787
upperback -1.35833 1.57016 -2.78669
thorax 12.9261 0.51779 3.06329
lowerneck -1.85794 -1.79502 -1.96566
upperneck 19.2624 -1.76213 4.30451
head 6.18507 -0.175075 1.64992
rclavicle -8.74653e-015 -2.94201e-014
rhumerus -38.8845 -12.4642 -78.8506
rradius 38.7937
rwrist -6.29822
rhand -8.08426 -48.871
rfingers 7.12502
rthumb 17.8278 -78.0738
lclavicle -8.74653e-015 -2.94201e-014
lhumerus -35.5324 8.84173 74.8719
lradius 23.9054
lwrist -4.80106
lhand -17.5096 -13.5778
lfingers 7.12502
lthumb 8.74364 16.2211
rfemur -31.8999 -2.29414 19.2233
rtibia 54.937
rfoot -10.6319 -1.42758
rtoes -32.9176
lfemur -33.6867 -4.98185 -25.7995
ltibia 13.8676
lfoot -5.93382 -1.6659
ltoes -28.1333
205
root 7.20874 16.2075 25.9276 -154.662 8.24415 176.377
lowerback -25.8022 -1.88205 -9.76114
upperback -1.32255 1.44565 -2.77914
thorax 12.8782 0.461213 2.99769
lowerneck -1.80694 -1.82528 -1.9626
upperneck 19.2453 -1.81532 4.37182
head 6.17299 -0.196473 1.66772
rclavicle 3.97569e-016 -2.46493e-014
rhumerus -38.9571 -13.2171 -78.3448
rradius 38.4825
rwrist -5.4515
rhand -7.97757 -48.8101
rfingers 7.12502
rthumb 17.9304 -78.0036
lclavicle 3.97569e-016 -2.46493e-014
lhumerus -35.2393 8.1788 75.1984
lradius 24.214
lwrist -4.50533
lhand -17.8563 -14.0705
lfingers 7.12502
lthumb 8.409 15.7421
rfemur -33.112 -2.60002 19.371
rtibia 56.783
rfoot -11.2961 -2.45298
rtoes -34.4376
lfemur -33.247 -4.90434 -25.8495
ltibia 13.6496
lfoot -6.09049 -1.76153
ltoes -27.9226
206
root 7.204 16.2092 25.8601 -154.686 8.23255 176.356
lowerback -25.5702 -1.95637 -9.76731
upperback -1.3536 1.31454 -2.77225
thorax 12.7299 0.408477 2.96041
lowerneck -1.77322 -1.79148 -1.98196
upperneck 19.3648 -1.74846 4.33185
head 6.20281 -0.161772 1.66397
rclavicle 1.39149e-015 -4.37326e-014
rhumerus -39.2369 -13.6671 -77.8632
rradius 38.4854
rwrist -4.93519
rhand -8.18582 -48.43
rfingers 7.12502
rthumb 17.73 -77.6417
lclavicle 1.39149e-015 -4.37326e-014
lhumerus -35.0819 7.49794 75.5285
lradius 24.6307
lwrist -4.11197
lhand -18.017 -14.554
lfingers 7.12502
lthumb 8.25388 15.2647
rfemur -34.3737 -2.61208 19.2611
rtibia 57.9384
rfoot -11.6192 -3.08839
rtoes -31.7034
lfemur -32.8422 -4.8437 -25.9806
ltibia 13.4357
lfoot -6.28116 -1.95061
ltoes -26.1313
207
root 7.19919 16.2115 25.7924 -154.755 8.23187 176.283
lowerback -25.3058 -2.056 -9.88298
upperback -1.36976 1.16673 -2.71398
thorax 12.5803 0.337187 3.03797
lowerneck -1.5606 -1.75114 -2.27631
upperneck 19.2403 -1.69841 4.49415
head 6.12831 -0.151451 1.76737
rclavicle 2.14687e-014 -6.83819e-014
rhumerus -39.5061 -13.5149 -77.6561
rradius 38.632
rwrist -5.5349
rhand -8.70803 -48.6971
rfingers 7.12502
rthumb 17.2275 -77.9535
lclavicle 2.14687e-014 -6.83819e-014
lhumerus -34.8812 7.19376 75.8414
lradius 25.0493
lwrist -3.91883
lhand -17.9659 -14.5898
lfingers 7.12502
lthumb 8.30321 15.227
rfemur -35.6423 -2.70202 19.1772
rtibia 59.7135
rfoot -12.5425 -3.7163
rtoes -30.6164
lfemur -32.371 -4.75701 -26.2122
ltibia 13.2351
lfoot -6.45077 -2.17208
ltoes -25.2571
208
root 7.1975 16.2132 25.723 -154.834 8.13402 176.398
lowerback -25.2037 -2.07558 -9.79744
upperback -1.26677 1.08202 -2.65859
thorax 12.654 0.286115 3.01975
lowerneck -1.41251 -1.80893 -2.28169
upperneck 19.1212 -1.78226 4.49084
head 6.06807 -0.198622 1.76126
rclavicle -6.95746e-015 3.26007e-014
rhumerus -39.5598 -13.6572 -77.521
rradius 38.5131
rwrist -6.21401
rhand -8.29061 -49.4155
rfingers 7.12502
rthumb 17.6292 -78.6362
lclavicle -6.95746e-015 3.26007e-014
lhumerus -34.3612 6.94052 76.1132
lradius 25.3291
lwrist -3.79463
lhand -18.0272 -14.7581
lfingers 7.12502
lthumb 8.24405 15.0611
rfemur -36.7827 -2.71614 19.3002
rtibia 60.6222
rfoot -13.0473 -4.54402
rtoes -33.1268
lfemur -31.8453 -4.71715 -26.1515
ltibia 12.9792
lfoot -6.55195 -2.37577
ltoes -24.3171
209
root 7.19643 16.2132 25.6536 -154.78 8.01714 176.613
lowerback -25.2356 -2.09604 -9.57421
upperback -1.2128 0.975362 -2.59108
thorax 12.7474 0.236146 2.93141
lowerneck -1.41715 -1.77676 -2.13217
upperneck 19.269 -1.708 4.32563
head 6.11073 -0.156241 1.6897
rclavicle -2.18663e-015 -6.52014e-014
rhumerus -39.7615 -13.6378 -77.3325
rradius 38.5547
rwrist -6.81705
rhand -8.6699 -50.3465
rfingers 7.12502
rthumb 17.2642 -79.5997
lclavicle -2.18663e-015 -6.52014e-014
lhumerus -33.9183 6.66207 76.3011
lradius 25.5718
lwrist -3.69372
lhand -18.0749 -14.6625
lfingers 7.12502
lthumb 8.19801 15.1585
rfemur -38.0006 -2.6865 19.5219
rtibia 61.4951
rfoot -14.0924 -5.31134
rtoes -36.7834
lfemur -31.4975 -4.79154 -25.8971
ltibia 12.7431
lfoot -6.68474 -2.38633
ltoes -24.3299
210
root 7.18354 16.1997 25.5519 -154.678 7.97195 176.876
lowerback -25.6741 -2.08462 -9.14016
upperback -1.15117 0.897553 -2.48539
thorax 13.0701 0.201769 2.77867
lowerneck -1.43547 -1.72578 -2.178
upperneck 19.4524 -1.59502 4.17793
head 6.16795 -0.106731 1.65923
rclavicle 4.96962e-015 -2.8625e-014
rhumerus -39.9941 -13.8709 -76.7525
rradius 38.2494
rwrist -6.4663
rhand -9.64277 -49.4732
rfingers 7.12502
rthumb 16.3276 -78.8058
lclavicle 4.96962e-015 -2.8625e-014
lhumerus -33.6469 6.6079 76.4816
lradius 25.7851
lwrist -3.82463
lhand -18.1171 -13.52
lfingers 7.12502
lthumb 8.15729 16.3026
rfemur -38.8743 -2.70274 19.663
rtibia 61.8483
rfoot -14.8457 -5.59392
rtoes -38.6181
lfemur -30.8003 -4.91182 -25.8122
ltibia 12.1387
lfoot -6.85658 -2.21414
ltoes -25.9893
